<svg xmlns="http://www.w3.org/2000/svg" viewBox="0 0 1024 1024">
  <defs>

    <!-- ── BACKGROUND: three vivid zones — bright enough to show at 32x32 ── -->
    <!-- Cyan zone upper-right -->
    <radialGradient id="bgCyan" cx="72%" cy="18%" r="65%">
      <stop offset="0"   stop-color="#1e6890" stop-opacity="1"/>
      <stop offset="0.45" stop-color="#0e3858" stop-opacity="1"/>
      <stop offset="1"   stop-color="#060a0e" stop-opacity="0"/>
    </radialGradient>
    <!-- Amber zone left-center -->
    <radialGradient id="bgAmber" cx="20%" cy="52%" r="62%">
      <stop offset="0"   stop-color="#5a3c10" stop-opacity="1"/>
      <stop offset="0.45" stop-color="#3a2808" stop-opacity="1"/>
      <stop offset="1"   stop-color="#080604" stop-opacity="0"/>
    </radialGradient>
    <!-- Ember zone bottom-center -->
    <radialGradient id="bgEmber" cx="50%" cy="92%" r="58%">
      <stop offset="0"   stop-color="#5a2410" stop-opacity="1"/>
      <stop offset="0.45" stop-color="#3a1608" stop-opacity="1"/>
      <stop offset="1"   stop-color="#080404" stop-opacity="0"/>
    </radialGradient>

    <!-- Blade gradient: ember-warm edges, bright white center -->
    <linearGradient id="blade" x1="0" y1="0" x2="1" y2="0">
      <stop offset="0"    stop-color="#c85820"/>
      <stop offset="0.18" stop-color="#f8d8b0"/>
      <stop offset="0.42" stop-color="#ffffff"/>
      <stop offset="0.58" stop-color="#ffffff"/>
      <stop offset="0.82" stop-color="#f8d8b0"/>
      <stop offset="1"    stop-color="#c85820"/>
    </linearGradient>

    <!-- Amber guard -->
    <linearGradient id="guardGold" x1="0" y1="0" x2="0" y2="1">
      <stop offset="0"   stop-color="#f7e07a"/>
      <stop offset="0.4" stop-color="#e6c463"/>
      <stop offset="1"   stop-color="#9a7820"/>
    </linearGradient>

    <!-- Cyan gem -->
    <radialGradient id="gem" cx="36%" cy="30%" r="65%">
      <stop offset="0"   stop-color="#c0fcff"/>
      <stop offset="0.4" stop-color="#46d6e0"/>
      <stop offset="1"   stop-color="#145868"/>
    </radialGradient>

    <!-- Grip leather -->
    <linearGradient id="grip" x1="0" y1="0" x2="1" y2="0">
      <stop offset="0"   stop-color="#2a1006"/>
      <stop offset="0.5" stop-color="#541e0c"/>
      <stop offset="1"   stop-color="#2a1006"/>
    </linearGradient>

    <!-- Soft ember bloom (large, diffuse) -->
    <filter id="emberBloom" x="-100%" y="-20%" width="300%" height="140%">
      <feGaussianBlur stdDeviation="32"/>
    </filter>

    <!-- Small ember dot glow -->
    <filter id="dotGlow" x="-200%" y="-200%" width="500%" height="500%">
      <feGaussianBlur stdDeviation="4" result="b"/>
      <feMerge><feMergeNode in="b"/><feMergeNode in="SourceGraphic"/></feMerge>
    </filter>

    <!-- Bright ember dot (hot core) -->
    <filter id="hotDot" x="-300%" y="-300%" width="700%" height="700%">
      <feGaussianBlur stdDeviation="6" result="b"/>
      <feMerge><feMergeNode in="b"/><feMergeNode in="SourceGraphic"/></feMerge>
    </filter>

    <!-- Blade edge glow -->
    <filter id="edgeGlow" x="-50%" y="-5%" width="200%" height="110%">
      <feGaussianBlur stdDeviation="9" result="b"/>
      <feColorMatrix in="b" type="matrix"
        values="1.3 0.3 0 0 0.08
                0.4 0.1 0 0 0
                0   0   0 0 0
                0   0   0 0.9 0" result="eg"/>
      <feMerge><feMergeNode in="eg"/><feMergeNode in="SourceGraphic"/></feMerge>
    </filter>

    <!-- Cyan glow -->
    <filter id="cyanGlow" x="-100%" y="-100%" width="300%" height="300%">
      <feGaussianBlur stdDeviation="18" result="b"/>
      <feColorMatrix in="b" type="matrix"
        values="0 0.2 0.6 0 0
                0 0.7 0.9 0 0
                0 0.4 0.8 0 0
                0 0   0   1 0"/>
    </filter>

    <!-- Amber glow -->
    <filter id="amberGlow" x="-60%" y="-60%" width="220%" height="220%">
      <feGaussianBlur stdDeviation="22"/>
    </filter>
  </defs>

  <!-- ══════════════════════════════
       BACKGROUND — tricolor blend
  ══════════════════════════════ -->
  <rect width="1024" height="1024" rx="196" fill="#070808"/>
  <rect width="1024" height="1024" rx="196" fill="url(#bgCyan)"/>
  <rect width="1024" height="1024" rx="196" fill="url(#bgAmber)"/>
  <rect width="1024" height="1024" rx="196" fill="url(#bgEmber)"/>

  <!-- Second pass — full opacity to ensure colors survive small-size rendering -->
  <rect width="1024" height="1024" rx="196" fill="url(#bgCyan)"  opacity="0.9"/>
  <rect width="1024" height="1024" rx="196" fill="url(#bgAmber)" opacity="0.9"/>
  <rect width="1024" height="1024" rx="196" fill="url(#bgEmber)" opacity="0.9"/>

  <!-- ══════════════════════════════
       EMBER ATMOSPHERE
  ══════════════════════════════ -->

  <!-- Large diffuse bloom around blade area -->
  <rect x="400" y="80" width="224" height="560" rx="112"
        fill="#e8804a" opacity="0.28" filter="url(#emberBloom)"/>
  <rect x="446" y="100" width="132" height="500" rx="66"
        fill="#ff9944" opacity="0.22" filter="url(#emberBloom)"/>

  <!-- ── Realistic ember sparks ──
       Each spark = a bright core dot + faint outer glow dot
       Clustered near the blade, fewer further away
       Sizes vary: large hot ones close in, small cool ones drifting out -->

  <!-- CLOSE sparks (large, bright — right next to blade) -->
  <circle cx="555" cy="560" r="5.5" fill="#ffdd88" opacity="0.95" filter="url(#dotGlow)"/>
  <circle cx="468" cy="530" r="5"   fill="#ffcc66" opacity="0.90" filter="url(#dotGlow)"/>
  <circle cx="560" cy="470" r="4.5" fill="#ffbb44" opacity="0.88" filter="url(#dotGlow)"/>
  <circle cx="460" cy="445" r="4"   fill="#ffcc66" opacity="0.85" filter="url(#dotGlow)"/>
  <circle cx="558" cy="380" r="5"   fill="#ffdd88" opacity="0.9"  filter="url(#dotGlow)"/>
  <circle cx="462" cy="360" r="4.5" fill="#ffcc66" opacity="0.87" filter="url(#dotGlow)"/>
  <circle cx="555" cy="290" r="4"   fill="#ffbb44" opacity="0.85" filter="url(#dotGlow)"/>
  <circle cx="464" cy="270" r="4"   fill="#ffcc55" opacity="0.83" filter="url(#dotGlow)"/>
  <circle cx="550" cy="210" r="3.5" fill="#ffdd88" opacity="0.8"  filter="url(#dotGlow)"/>
  <circle cx="470" cy="195" r="3.5" fill="#ffcc66" opacity="0.78" filter="url(#dotGlow)"/>

  <!-- MID sparks (medium size, drifting outward) -->
  <circle cx="590" cy="540" r="4"   fill="#ff9933" opacity="0.78" filter="url(#dotGlow)"/>
  <circle cx="434" cy="510" r="3.5" fill="#ff8822" opacity="0.75" filter="url(#dotGlow)"/>
  <circle cx="600" cy="440" r="3"   fill="#ffaa44" opacity="0.72" filter="url(#dotGlow)"/>
  <circle cx="422" cy="415" r="3"   fill="#ff9933" opacity="0.70" filter="url(#dotGlow)"/>
  <circle cx="605" cy="335" r="3.5" fill="#ff8822" opacity="0.72" filter="url(#dotGlow)"/>
  <circle cx="418" cy="310" r="3"   fill="#ffaa44" opacity="0.68" filter="url(#dotGlow)"/>
  <circle cx="598" cy="245" r="3"   fill="#ff9933" opacity="0.68" filter="url(#dotGlow)"/>
  <circle cx="425" cy="225" r="2.5" fill="#ff8822" opacity="0.65" filter="url(#dotGlow)"/>
  <circle cx="586" cy="165" r="3"   fill="#ffbb44" opacity="0.65" filter="url(#dotGlow)"/>
  <circle cx="436" cy="150" r="2.5" fill="#ff9933" opacity="0.62" filter="url(#dotGlow)"/>
  <!-- Near tip sparks -->
  <circle cx="530" cy="120" r="3"   fill="#ffdd99" opacity="0.75" filter="url(#dotGlow)"/>
  <circle cx="492" cy="108" r="2.5" fill="#ffcc66" opacity="0.70" filter="url(#dotGlow)"/>
  <circle cx="546" cy="152" r="2"   fill="#ff9933" opacity="0.65" filter="url(#dotGlow)"/>
  <circle cx="478" cy="140" r="2"   fill="#ffaa44" opacity="0.60" filter="url(#dotGlow)"/>

  <!-- FAR sparks (small, cooling — scattered and faint) -->
  <circle cx="638" cy="500" r="2.5" fill="#ff7711" opacity="0.55" filter="url(#dotGlow)"/>
  <circle cx="386" cy="472" r="2"   fill="#ff7711" opacity="0.50" filter="url(#dotGlow)"/>
  <circle cx="650" cy="400" r="2"   fill="#ff8822" opacity="0.48" filter="url(#dotGlow)"/>
  <circle cx="372" cy="375" r="2.5" fill="#ff7711" opacity="0.50" filter="url(#dotGlow)"/>
  <circle cx="644" cy="290" r="2"   fill="#ff8822" opacity="0.45" filter="url(#dotGlow)"/>
  <circle cx="378" cy="268" r="2"   fill="#ff7711" opacity="0.45" filter="url(#dotGlow)"/>
  <circle cx="634" cy="195" r="2"   fill="#ff8822" opacity="0.42" filter="url(#dotGlow)"/>
  <circle cx="388" cy="178" r="2"   fill="#ff7711" opacity="0.42" filter="url(#dotGlow)"/>
  <circle cx="620" cy="128" r="2"   fill="#ff9933" opacity="0.40" filter="url(#dotGlow)"/>
  <circle cx="402" cy="115" r="1.5" fill="#ff8822" opacity="0.38" filter="url(#dotGlow)"/>
  <circle cx="670" cy="340" r="1.5" fill="#e8804a" opacity="0.38" filter="url(#dotGlow)"/>
  <circle cx="352" cy="320" r="1.5" fill="#e8804a" opacity="0.35" filter="url(#dotGlow)"/>
  <circle cx="660" cy="460" r="1.5" fill="#e8804a" opacity="0.35" filter="url(#dotGlow)"/>
  <circle cx="360" cy="435" r="1.5" fill="#e8804a" opacity="0.35" filter="url(#dotGlow)"/>

  <!-- Hot white-core embers (few, very bright — like freshly launched coals) -->
  <circle cx="556" cy="480" r="3" fill="#ffffff" opacity="0.9" filter="url(#hotDot)"/>
  <circle cx="466" cy="450" r="3" fill="#ffffff" opacity="0.85" filter="url(#hotDot)"/>
  <circle cx="552" cy="310" r="2.5" fill="#ffffff" opacity="0.8" filter="url(#hotDot)"/>
  <circle cx="468" cy="285" r="2.5" fill="#ffffff" opacity="0.78" filter="url(#hotDot)"/>
  <circle cx="531" cy="128" r="2" fill="#ffffff" opacity="0.75" filter="url(#hotDot)"/>

  <!-- Short ember streaks (motion blur — very short, directional, sparse) -->
  <line x1="572" y1="524" x2="580" y2="514" stroke="#ffcc44" stroke-width="1.5" opacity="0.5" stroke-linecap="round"/>
  <line x1="449" y1="498" x2="441" y2="488" stroke="#ffcc44" stroke-width="1.5" opacity="0.48" stroke-linecap="round"/>
  <line x1="612" y1="418" x2="622" y2="406" stroke="#ffaa33" stroke-width="1.5" opacity="0.45" stroke-linecap="round"/>
  <line x1="409" y1="392" x2="399" y2="381" stroke="#ffaa33" stroke-width="1.5" opacity="0.43" stroke-linecap="round"/>
  <line x1="610" y1="310" x2="619" y2="298" stroke="#ff9922" stroke-width="1.5" opacity="0.42" stroke-linecap="round"/>
  <line x1="413" y1="286" x2="404" y2="274" stroke="#ff9922" stroke-width="1.5" opacity="0.40" stroke-linecap="round"/>
  <line x1="542" y1="148" x2="550" y2="136" stroke="#ffdd66" stroke-width="1.5" opacity="0.55" stroke-linecap="round"/>
  <line x1="481" y1="134" x2="473" y2="122" stroke="#ffdd66" stroke-width="1.5" opacity="0.52" stroke-linecap="round"/>

  <!-- ══════════════════════════════
       SWORD
  ══════════════════════════════ -->

  <!-- ── BLADE: proper sword profile ──
       Parallel-sided body, tapers only in top ~35%
       Width at base: ±36px = 72px total
       Tip: point at y=78 -->
  <polygon points="
      512,78
      535,215  548,420  548,594
      512,636
      476,594  476,420  489,215"
      fill="#e8804a" opacity="0.45" filter="url(#emberBloom)"/>

  <polygon points="
      512,78
      535,215  548,420  548,594
      512,636
      476,594  476,420  489,215"
      fill="url(#blade)" filter="url(#edgeGlow)"/>

  <!-- Central fuller -->
  <line x1="512" y1="94"  x2="512" y2="622"
        stroke="#ffffff" stroke-width="4" opacity="0.48"/>

  <!-- Left bevel shading -->
  <polygon points="512,96 489,215 476,500 512,622"
           fill="#e0c090" opacity="0.11"/>
  <!-- Right bevel shading -->
  <polygon points="512,96 535,215 548,500 512,622"
           fill="#ffffff"   opacity="0.10"/>

  <!-- Ember edge glow lines on blade sides -->
  <line x1="476" y1="310" x2="476" y2="593"
        stroke="#ff7722" stroke-width="4.5" opacity="0.58"/>
  <line x1="548" y1="310" x2="548" y2="593"
        stroke="#ff7722" stroke-width="4.5" opacity="0.58"/>
  <!-- Upper taper edges -->
  <line x1="476" y1="420" x2="489" y2="215"
        stroke="#ff9944" stroke-width="3" opacity="0.40"/>
  <line x1="548" y1="420" x2="535" y2="215"
        stroke="#ff9944" stroke-width="3" opacity="0.40"/>

  <!-- ── CROSS-GUARD (amber) ── -->
  <path d="M300,616 Q406,584 512,596 Q618,584 724,616 L712,668 Q618,650 512,660 Q406,650 312,668 Z"
        fill="#e6c463" opacity="0.22" filter="url(#amberGlow)"/>
  <path d="M314,620 Q408,590 512,601 Q616,590 710,620 L700,664 Q616,648 512,657 Q408,648 324,664 Z"
        fill="url(#guardGold)"/>
  <ellipse cx="320" cy="641" rx="26" ry="15" fill="#f0d068" opacity="0.88"/>
  <ellipse cx="704" cy="641" rx="26" ry="15" fill="#f0d068" opacity="0.88"/>
  <line x1="393" y1="596" x2="393" y2="658" stroke="#9a7018" stroke-width="2" opacity="0.48"/>
  <line x1="438" y1="591" x2="438" y2="661" stroke="#9a7018" stroke-width="2" opacity="0.48"/>
  <line x1="586" y1="591" x2="586" y2="661" stroke="#9a7018" stroke-width="2" opacity="0.48"/>
  <line x1="631" y1="596" x2="631" y2="658" stroke="#9a7018" stroke-width="2" opacity="0.48"/>

  <!-- ── CENTER GEM (cyan) ── -->
  <polygon points="512,576 546,636 512,696 478,636"
           fill="#46d6e0" opacity="0.32" filter="url(#cyanGlow)"/>
  <polygon points="512,582 540,636 512,690 484,636"
           fill="url(#gem)"/>
  <polygon points="512,584 540,636 512,636" fill="#b8fbff" opacity="0.52"/>
  <polygon points="512,584 484,636 512,636" fill="#46d6e0" opacity="0.36"/>
  <circle cx="524" cy="610" r="7" fill="#ffffff" opacity="0.55"/>

  <!-- ── GRIP ── -->
  <rect x="490" y="657" width="44" height="178" rx="9" fill="url(#grip)"/>
  <rect x="490" y="678" width="44" height="9" rx="3" fill="#e6c463" opacity="0.9"/>
  <rect x="490" y="703" width="44" height="9" rx="3" fill="#e6c463" opacity="0.9"/>
  <rect x="490" y="728" width="44" height="9" rx="3" fill="#e8804a" opacity="0.88"/>
  <rect x="490" y="753" width="44" height="9" rx="3" fill="#e6c463" opacity="0.9"/>
  <rect x="490" y="778" width="44" height="9" rx="3" fill="#e6c463" opacity="0.9"/>
  <line x1="512" y1="658" x2="512" y2="834" stroke="#e8804a" stroke-width="2" opacity="0.25"/>

  <!-- ── POMMEL (amber body + cyan gem) ── -->
  <polygon points="512,835 552,852 566,890 552,928 512,943 472,928 458,890 472,852"
           fill="#e6c463" opacity="0.22" filter="url(#amberGlow)"/>
  <polygon points="512,837 550,853 564,890 550,927 512,942 474,927 460,890 474,853"
           fill="url(#guardGold)"/>
  <polygon points="512,852 542,865 554,890 542,916 512,930 482,916 470,890 482,865"
           fill="none" stroke="#9a7018" stroke-width="2" opacity="0.42"/>
  <circle cx="512" cy="890" r="27" fill="url(#gem)" filter="url(#cyanGlow)"/>
  <circle cx="503" cy="880" r="9"  fill="#ccfbff" opacity="0.58"/>
</svg>
